<svg width="253" height="37" viewBox="0 0 253 37" fill="none" xmlns="http://www.w3.org/2000/svg">
<path d="M208.554 1.88689C208.467 2.63686 210.005 3.73709 211.091 4.03148C215.906 5.33754 215.355 8.53625 213.443 9.59037C210.082 11.4437 203.437 16.1377 209.142 19.916C206.238 16.8965 210.032 13.2305 214.325 11.7713C215.171 11.4839 217.009 11.0914 219.84 12.2438C220.441 12.4887 222.597 13.5888 221.899 10.538C220.447 4.19355 214.056 1.63329 211.275 1.08721C210.172 1.01452 208.665 0.941816 208.554 1.88689Z" fill="#F2545B"/>
<path d="M191.879 19.9768C192.637 20.0633 193.75 18.542 194.048 17.4687C195.369 12.7073 198.604 13.2526 199.67 15.1427C201.544 18.4659 206.291 25.0363 210.112 19.3952C207.059 22.2671 203.351 18.5153 201.875 14.2703C201.585 13.4343 201.188 11.6169 202.353 8.818C202.601 8.22336 203.714 6.09183 200.628 6.78213C194.212 8.21769 191.622 14.5365 191.07 17.287C190.997 18.3775 190.923 19.8678 191.879 19.9768Z" fill="#F2545B"/>
<path d="M210.027 36.1615C210.114 35.4115 208.576 34.3113 207.49 34.0169C202.675 32.7108 203.226 29.5121 205.138 28.458C208.499 26.6047 215.144 21.9107 209.439 18.1324C212.343 21.1518 208.549 24.8178 204.256 26.2771C203.41 26.5644 201.572 26.957 198.742 25.8045C198.14 25.5597 195.984 24.4596 196.683 27.5104C198.134 33.8548 204.525 36.4151 207.307 36.9611C208.409 37.0338 209.917 37.1065 210.027 36.1615Z" fill="#F2545B"/>
<path d="M226.689 18.0845C225.931 17.9979 224.818 19.5193 224.52 20.5926C223.199 25.354 219.964 24.8087 218.898 22.9186C217.024 19.5954 212.277 13.025 208.456 18.6661C211.509 15.7942 215.217 19.546 216.693 23.791C216.983 24.627 217.38 26.4444 216.215 29.2433C215.967 29.8379 214.855 31.9695 217.94 31.2792C224.356 29.8436 226.946 23.5248 227.498 20.7743C227.572 19.6838 227.645 18.1935 226.689 18.0845Z" fill="#F2545B"/>
<path d="M202.942 13.3707C203.09 14.9608 203.993 16.0605 206.618 18.3505C204.692 13.9284 204.11 12.5725 206.264 10.3322C208.418 8.09181 208.213 5.90058 208.218 5.8281C208.28 5.03108 207.919 2.43252 204.852 1.87071C201.784 1.3089 197.987 3.81777 196.853 4.85466C195.826 5.7939 196.731 6.60457 197.49 6.33588C198.693 5.91009 198.494 5.68429 200.22 5.2832C201.947 4.88211 206.713 4.75235 203.993 9.22077C202.865 11.291 202.824 12.1038 202.942 13.3707Z" fill="#F2545B"/>
<path d="M203.64 25.3402C205.248 25.1938 206.36 24.3009 208.676 21.7053C204.204 23.6094 202.833 24.1847 200.567 22.0549C198.301 19.9251 196.085 20.1281 196.012 20.1226C195.206 20.0619 192.578 20.4189 192.01 23.4517C191.441 26.4844 193.979 30.2391 195.027 31.3602C195.977 32.3757 196.797 31.4807 196.525 30.7302C196.095 29.5408 195.866 29.7381 195.461 28.031C195.055 26.3238 194.924 21.6109 199.443 24.3009C201.537 25.4158 202.359 25.4569 203.64 25.3402Z" fill="#F2545B"/>
<path d="M215.228 12.5364C213.62 12.6828 212.508 13.5757 210.192 16.1713C214.664 14.2672 216.035 13.6919 218.301 15.8217C220.567 17.9515 222.783 17.7484 222.856 17.754C223.662 17.8147 226.29 17.4576 226.858 14.4249C227.427 11.3922 224.889 7.63749 223.841 6.51638C222.891 5.50086 222.071 6.39588 222.343 7.14643C222.773 8.33578 223.002 8.13852 223.407 9.84564C223.813 11.5528 223.944 16.2657 219.425 13.5757C217.331 12.4608 216.509 12.4197 215.228 12.5364Z" fill="#F2545B"/>
<path d="M215.819 24.4652C215.671 22.8751 214.768 21.7754 212.143 19.4854C214.068 23.9075 214.65 25.2634 212.496 27.5037C210.342 29.7441 210.548 31.9353 210.542 32.0078C210.481 32.8048 210.842 35.4034 213.909 35.9652C216.976 36.527 220.773 34.0181 221.907 32.9812C222.934 32.042 222.029 31.2313 221.27 31.5C220.067 31.9258 220.267 32.1516 218.54 32.5527C216.814 32.9538 212.047 33.0835 214.768 28.6151C215.895 26.5448 215.937 25.7321 215.819 24.4652Z" fill="#F2545B"/>
<path d="M212.583 6.17879C212.084 5.84362 210.308 5.07287 209.382 4.98099C209.877 5.88677 210.228 8.31813 207.665 10.7973C208.584 10.1613 211.027 9.37638 212.392 8.55658C212.997 8.19379 213.757 7.10101 212.583 6.17879Z" fill="#F2545B"/>
<path d="M222.162 22.2131C222.501 21.7201 223.281 19.9635 223.374 19.0478C222.458 19.5379 219.999 19.8846 217.491 17.3503C218.135 18.2596 218.928 20.6744 219.758 22.025C220.124 22.6227 221.23 23.3742 222.162 22.2131Z" fill="#F2545B"/>
<path d="M205.946 31.6853C206.445 32.0205 208.221 32.7912 209.147 32.8831C208.652 31.9773 208.301 29.546 210.864 27.0668C209.944 27.7028 207.502 28.4877 206.136 29.3075C205.532 29.6703 204.772 30.7631 205.946 31.6853Z" fill="#F2545B"/>
<path d="M196.367 15.651C196.028 16.144 195.248 17.9006 195.155 18.8163C196.071 18.3262 198.53 17.9795 201.037 20.5138C200.394 19.6045 199.6 17.1897 198.771 15.8391C198.404 15.2414 197.299 14.4899 196.367 15.651Z" fill="#F2545B"/>
<path d="M210.514 18.9684C209.264 20.2406 210.514 18.9684 209.264 20.2406C208.015 18.9684 209.264 20.2406 208.015 18.9684C209.264 17.6962 208.015 18.9684 209.264 17.6962C210.514 18.9684 209.264 17.6962 210.514 18.9684Z" fill="#F2545B"/>
<path d="M44.2388 7.87919V21.1231H50.9358C51.8537 21.1231 52.717 20.9539 53.526 20.6155C54.3349 20.2617 55.0427 19.7849 55.6494 19.185C56.2562 18.5851 56.7306 17.8852 57.0729 17.0853C57.4307 16.2701 57.6096 15.4087 57.6096 14.5012C57.6096 13.5936 57.4307 12.7399 57.0729 11.94C56.7306 11.1248 56.2562 10.4172 55.6494 9.81732C55.0427 9.21742 54.3349 8.74827 53.526 8.40987C52.717 8.05608 51.8537 7.87919 50.9358 7.87919H44.2388ZM44.2388 34.344H37.5417V1.25721H50.9358C52.1648 1.25721 53.3471 1.41872 54.4827 1.74175C55.6183 2.04939 56.6762 2.49547 57.6562 3.07999C58.6519 3.64912 59.5541 4.34131 60.3631 5.15656C61.1876 5.95643 61.8876 6.84859 62.4632 7.83304C63.0543 8.81749 63.5055 9.87116 63.8166 10.9941C64.1433 12.1169 64.3066 13.286 64.3066 14.5012C64.3066 15.6394 64.1589 16.7469 63.8633 17.8237C63.5833 18.9004 63.171 19.9233 62.6265 20.8924C62.0976 21.8615 61.4442 22.7536 60.6664 23.5689C59.8886 24.3841 59.0174 25.0917 58.0529 25.6916L61.7632 34.344H54.6461L51.7292 27.6759L44.2388 27.722V34.344Z" fill="#F2545B"/>
<path d="M88.4114 21.1231V14.5012C88.4114 13.5936 88.2326 12.7399 87.8747 11.94C87.5325 11.1248 87.058 10.4172 86.4513 9.81732C85.8446 9.21742 85.129 8.74827 84.3045 8.40987C83.4956 8.05608 82.6322 7.87919 81.7144 7.87919C80.7965 7.87919 79.9254 8.05608 79.1009 8.40987C78.2919 8.74827 77.5841 9.21742 76.9774 9.81732C76.3707 10.4172 75.8885 11.1248 75.5307 11.94C75.1884 12.7399 75.0173 13.5936 75.0173 14.5012V21.1231H88.4114ZM95.1085 34.344H88.4114V27.722H75.0173V34.344H68.3436V14.5012C68.3436 12.6707 68.6936 10.9556 69.3936 9.35586C70.0937 7.74075 71.0426 6.33329 72.2405 5.13349C73.4539 3.93369 74.8695 2.98769 76.4874 2.2955C78.1208 1.60331 79.8631 1.25721 81.7144 1.25721C83.5656 1.25721 85.3001 1.60331 86.918 2.2955C88.5515 2.98769 89.9749 3.93369 91.1883 5.13349C92.4017 6.33329 93.3584 7.74075 94.0585 9.35586C94.7585 10.9556 95.1085 12.6707 95.1085 14.5012V34.344Z" fill="#F2545B"/>
<path d="M107.616 7.87919V21.1231H114.313C115.231 21.1231 116.094 20.9539 116.903 20.6155C117.712 20.2617 118.42 19.7849 119.027 19.185C119.633 18.5851 120.108 17.8852 120.45 17.0853C120.808 16.2701 120.987 15.4087 120.987 14.5012C120.987 13.5936 120.808 12.7399 120.45 11.94C120.108 11.1248 119.633 10.4172 119.027 9.81732C118.42 9.21742 117.712 8.74827 116.903 8.40987C116.094 8.05608 115.231 7.87919 114.313 7.87919H107.616ZM107.616 34.344H100.919V1.25721H114.313C115.542 1.25721 116.724 1.41872 117.86 1.74175C118.996 2.04939 120.053 2.49547 121.033 3.07999C122.029 3.64912 122.931 4.34131 123.74 5.15656C124.565 5.95643 125.265 6.84859 125.84 7.83304C126.432 8.81749 126.883 9.87116 127.194 10.9941C127.52 12.1169 127.684 13.286 127.684 14.5012C127.684 16.3162 127.334 18.0313 126.634 19.6465C125.934 21.2462 124.977 22.646 123.764 23.8458C122.55 25.0456 121.127 25.9916 119.493 26.6838C117.875 27.3759 116.149 27.722 114.313 27.722H107.616V34.344Z" fill="#F2545B"/>
<path d="M138.324 34.344H131.627V1.25721H138.324V14.5012H151.695V1.25721H158.392V34.344H151.695V21.1231H138.324V34.344Z" fill="#F2545B"/>
<path d="M188.051 34.344H164.623V1.25721H171.32V27.722H188.051V34.344Z" fill="#F2545B"/>
<path d="M242.966 34.344H236.292V7.87919H226.235V1.25721H253V7.87919H242.966V34.344Z" fill="#F2545B"/>
<path d="M33.6231 22.5984C32.9657 24.5097 31.9992 26.2542 30.7235 27.8319C29.4398 29.3964 27.9099 30.7033 26.1336 31.7525C24.7714 32.5571 23.3482 33.1558 21.8641 33.5487C20.4013 33.9469 18.9309 34.1525 17.4528 34.1655C15.9668 34.1652 14.5024 33.991 13.0598 33.6426C11.6091 33.2811 10.2362 32.7482 8.94097 32.044C7.63776 31.3267 6.42691 30.4472 5.30842 29.4057C4.20328 28.3563 3.24384 27.1581 2.43009 25.8112C1.61634 24.4642 1.00812 23.0676 0.605427 21.6212C0.216088 20.1669 0.0148441 18.709 0.00169593 17.2475C-0.0194301 15.7728 0.156818 14.3249 0.53044 12.9037C0.896084 11.4694 1.43499 10.1118 2.14717 8.83111C2.85934 7.5504 3.7394 6.36762 4.78735 5.28277C5.84067 4.17682 7.04844 3.22153 8.41066 2.41691C10.1869 1.36774 12.0798 0.661739 14.0895 0.2989C16.0912 -0.0771436 18.0988 -0.0983643 20.1124 0.235238L20.0993 6.96213C18.7047 6.60333 17.2922 6.51489 15.8618 6.69682C14.4235 6.86554 13.0766 7.32065 11.8212 8.06217C10.5659 8.80369 9.52753 9.73951 8.70627 10.8696C7.89836 11.9919 7.32771 13.2069 6.99433 14.5147C6.65297 15.8093 6.57299 17.1467 6.75437 18.5267C6.92778 19.8935 7.38945 21.1976 8.13938 22.4389C8.89728 23.6934 9.84771 24.7266 10.9907 25.5387C12.1336 26.3507 13.3664 26.9216 14.6891 27.2512C16.0117 27.5809 17.3642 27.66 18.7465 27.4885C20.1422 27.3091 21.4677 26.8487 22.7231 26.1072C23.4442 25.6812 24.0935 25.1812 24.6709 24.6073C25.2483 24.0333 25.7524 23.413 26.1833 22.7464L21.3008 14.6648L26.8498 11.3871L33.6231 22.5984Z" fill="#F2545B"/>
<path d="M208.554 1.88689C208.467 2.63686 210.005 3.73709 211.091 4.03148C215.906 5.33754 215.355 8.53625 213.443 9.59037C210.082 11.4437 203.437 16.1377 209.142 19.916C206.238 16.8965 210.032 13.2305 214.325 11.7713C215.171 11.4839 217.009 11.0914 219.84 12.2438C220.441 12.4887 222.597 13.5888 221.899 10.538C220.447 4.19355 214.056 1.63329 211.275 1.08721C210.172 1.01452 208.665 0.941816 208.554 1.88689Z" fill="#F2545B"/>
<path d="M191.879 19.9768C192.637 20.0633 193.75 18.542 194.048 17.4687C195.369 12.7073 198.604 13.2526 199.67 15.1427C201.544 18.4659 206.291 25.0363 210.112 19.3952C207.059 22.2671 203.351 18.5153 201.875 14.2703C201.585 13.4343 201.188 11.6169 202.353 8.818C202.601 8.22336 203.714 6.09183 200.628 6.78213C194.212 8.21769 191.622 14.5365 191.07 17.287C190.997 18.3775 190.923 19.8678 191.879 19.9768Z" fill="#F2545B"/>
<path d="M210.027 36.1615C210.114 35.4115 208.576 34.3113 207.49 34.0169C202.675 32.7108 203.226 29.5121 205.138 28.458C208.499 26.6047 215.144 21.9107 209.439 18.1324C212.343 21.1518 208.549 24.8178 204.256 26.2771C203.41 26.5644 201.572 26.957 198.742 25.8045C198.14 25.5597 195.984 24.4596 196.683 27.5104C198.134 33.8548 204.525 36.4151 207.307 36.9611C208.409 37.0338 209.917 37.1065 210.027 36.1615Z" fill="#F2545B"/>
<path d="M226.689 18.0845C225.931 17.9979 224.818 19.5193 224.52 20.5926C223.199 25.354 219.964 24.8087 218.898 22.9186C217.024 19.5954 212.277 13.025 208.456 18.6661C211.509 15.7942 215.217 19.546 216.693 23.791C216.983 24.627 217.38 26.4444 216.215 29.2433C215.967 29.8379 214.855 31.9695 217.94 31.2792C224.356 29.8436 226.946 23.5248 227.498 20.7743C227.572 19.6838 227.645 18.1935 226.689 18.0845Z" fill="#F2545B"/>
<path d="M202.942 13.3707C203.09 14.9608 203.993 16.0605 206.618 18.3505C204.692 13.9284 204.11 12.5725 206.264 10.3322C208.418 8.09181 208.213 5.90058 208.218 5.8281C208.28 5.03108 207.919 2.43252 204.852 1.87071C201.784 1.3089 197.987 3.81777 196.853 4.85466C195.826 5.7939 196.731 6.60457 197.49 6.33588C198.693 5.91009 198.494 5.68429 200.22 5.2832C201.947 4.88211 206.713 4.75235 203.993 9.22077C202.865 11.291 202.824 12.1038 202.942 13.3707Z" fill="#F2545B"/>
<path d="M203.64 25.3402C205.248 25.1938 206.36 24.3009 208.676 21.7053C204.204 23.6094 202.833 24.1847 200.567 22.0549C198.301 19.9251 196.085 20.1281 196.012 20.1226C195.206 20.0619 192.578 20.4189 192.01 23.4517C191.441 26.4844 193.979 30.2391 195.027 31.3602C195.977 32.3757 196.797 31.4807 196.525 30.7302C196.095 29.5408 195.866 29.7381 195.461 28.031C195.055 26.3238 194.924 21.6109 199.443 24.3009C201.537 25.4158 202.359 25.4569 203.64 25.3402Z" fill="#F2545B"/>
<path d="M215.819 24.4652C215.671 22.8751 214.768 21.7754 212.143 19.4854C214.068 23.9075 214.65 25.2634 212.496 27.5037C210.342 29.7441 210.548 31.9353 210.542 32.0078C210.481 32.8048 210.842 35.4034 213.909 35.9652C216.976 36.527 220.773 34.0181 221.907 32.9812C222.934 32.042 222.029 31.2313 221.27 31.5C220.067 31.9258 220.267 32.1516 218.54 32.5527C216.814 32.9538 212.047 33.0835 214.768 28.6151C215.895 26.5448 215.937 25.7321 215.819 24.4652Z" fill="#F2545B"/>
<path d="M212.583 6.17879C212.084 5.84362 210.308 5.07287 209.382 4.98099C209.877 5.88677 210.228 8.31813 207.665 10.7973C208.584 10.1613 211.027 9.37638 212.392 8.55658C212.997 8.19379 213.757 7.10101 212.583 6.17879Z" fill="#F2545B"/>
<path d="M222.162 22.2131C222.501 21.7201 223.281 19.9635 223.374 19.0478C222.458 19.5379 219.999 19.8846 217.491 17.3503C218.135 18.2596 218.928 20.6744 219.758 22.025C220.124 22.6227 221.23 23.3742 222.162 22.2131Z" fill="#F2545B"/>
<path d="M205.946 31.6853C206.445 32.0205 208.221 32.7912 209.147 32.8831C208.652 31.9773 208.301 29.546 210.864 27.0668C209.944 27.7028 207.502 28.4877 206.136 29.3075C205.532 29.6703 204.772 30.7631 205.946 31.6853Z" fill="#F2545B"/>
<path d="M196.367 15.651C196.028 16.144 195.248 17.9006 195.155 18.8163C196.071 18.3262 198.53 17.9795 201.037 20.5138C200.394 19.6045 199.6 17.1897 198.771 15.8391C198.404 15.2414 197.299 14.4899 196.367 15.651Z" fill="#F2545B"/>
<path d="M210.514 18.9684C209.264 20.2406 210.514 18.9684 209.264 20.2406C208.015 18.9684 209.264 20.2406 208.015 18.9684C209.264 17.6962 208.015 18.9684 209.264 17.6962C210.514 18.9684 209.264 17.6962 210.514 18.9684Z" fill="#F2545B"/>
</svg>
