<svg width="41" height="40" viewBox="0 0 41 40" fill="none" xmlns="http://www.w3.org/2000/svg">
<path d="M19.4966 0.932958C19.3993 1.76737 21.1112 2.9915 22.3188 3.31903C27.6764 4.77216 27.0629 8.33107 24.9361 9.50389C21.1968 11.5659 13.8036 16.7885 20.1511 20.9922C16.9195 17.6327 21.1412 13.5539 25.9177 11.9304C26.8584 11.6107 28.9034 11.1739 32.0528 12.4562C32.7219 12.7286 35.1204 13.9525 34.3436 10.5582C32.7283 3.49936 25.6182 0.650798 22.5233 0.0432348C21.2963 -0.0376483 19.6193 -0.118539 19.4966 0.932958Z" fill="#F2545B"/>
<path d="M0.94354 21.0599C1.78742 21.1562 3.02543 19.4635 3.35669 18.2694C4.82629 12.9718 8.42554 13.5785 9.61166 15.6815C11.6971 19.3788 16.9789 26.6892 21.2303 20.4128C17.8327 23.6081 13.7076 19.4338 12.0657 14.7108C11.7423 13.7807 11.3006 11.7586 12.5974 8.64455C12.8729 7.98295 14.1108 5.61139 10.6779 6.37943C3.53905 7.97664 0.658178 15.007 0.0437247 18.0672C-0.0380758 19.2805 -0.119881 20.9386 0.94354 21.0599Z" fill="#F2545B"/>
<path d="M21.1351 39.067C21.2325 38.2326 19.5206 37.0085 18.313 36.681C12.9554 35.2278 13.5689 31.6689 15.6957 30.4961C19.435 28.4341 26.8282 23.2115 20.4807 19.0078C23.7122 22.3673 19.4906 26.4461 14.7141 28.0696C13.7734 28.3893 11.7283 28.8261 8.57899 27.5438C7.90989 27.2714 5.51143 26.0475 6.28818 29.4418C7.9035 36.5006 15.0136 39.3492 18.1085 39.9568C19.3355 40.0377 21.0124 40.1185 21.1351 39.067Z" fill="#F2545B"/>
<path d="M39.6737 18.9545C38.8298 18.8582 37.5918 20.5509 37.2605 21.745C35.7909 27.0426 32.1917 26.4359 31.0056 24.3329C28.9202 20.6356 23.6383 13.3252 19.3869 19.6016C22.7845 16.4063 26.9095 20.5806 28.5515 25.3035C28.8749 26.2337 29.3166 28.2558 28.0198 31.3698C27.7443 32.0314 26.5065 34.403 29.9393 33.635C37.0782 32.0378 39.959 25.0074 40.5735 21.9472C40.6553 20.7339 40.7371 19.0758 39.6737 18.9545Z" fill="#F2545B"/>
<path d="M13.2518 13.7099C13.4166 15.4791 14.4213 16.7026 17.3419 19.2504C15.1994 14.3304 14.5521 12.8219 16.9486 10.3292C19.3451 7.83659 19.1166 5.39862 19.1228 5.31797C19.1911 4.4312 18.7894 1.54003 15.3769 0.914954C11.9644 0.289879 7.7395 3.08127 6.47801 4.23491C5.33532 5.27991 6.34244 6.18188 7.18697 5.88293C8.52526 5.4092 8.30326 5.15797 10.2242 4.71171C12.1451 4.26545 17.4482 4.12108 14.4213 9.09267C13.1668 11.3961 13.1205 12.3004 13.2518 13.7099Z" fill="#F2545B"/>
<path d="M14.0289 27.0273C15.8182 26.8643 17.0556 25.8709 19.6323 22.9831C14.6565 25.1016 13.1309 25.7416 10.61 23.372C8.08908 21.0023 5.62347 21.2283 5.5419 21.2221C4.64508 21.1546 1.72113 21.5518 1.08897 24.926C0.456802 28.3003 3.27982 32.4778 4.44654 33.7251C5.5034 34.855 6.41559 33.8592 6.11325 33.0242C5.63414 31.7009 5.38008 31.9203 4.92876 30.021C4.47744 28.1216 4.33141 22.878 9.35939 25.8709C11.6889 27.1113 12.6035 27.1571 14.0289 27.0273Z" fill="#F2545B"/>
<path d="M26.9218 12.7816C25.1326 12.9446 23.8952 13.938 21.3184 16.8258C26.2942 14.7073 27.8199 14.0673 30.3408 16.4369C32.8617 18.8065 35.3273 18.5806 35.4089 18.5868C36.3057 18.6543 39.2297 18.2571 39.8619 14.8829C40.494 11.5086 37.671 7.3311 36.5042 6.08376C35.4474 4.95388 34.5352 5.94968 34.8375 6.78475C35.3166 8.10803 35.5707 7.88855 36.022 9.78791C36.4733 11.6873 36.6194 16.9309 31.5914 13.938C29.2619 12.6976 28.3473 12.6518 26.9218 12.7816Z" fill="#F2545B"/>
<path d="M27.5792 26.0537C27.4144 24.2845 26.4097 23.061 23.4891 20.5132C25.6316 25.4332 26.2789 26.9418 23.8824 29.4344C21.4859 31.927 21.7144 34.365 21.7082 34.4456C21.6399 35.3324 22.0416 38.2236 25.4541 38.8487C28.8666 39.4737 33.0915 36.6823 34.353 35.5287C35.4957 34.4837 34.4886 33.5817 33.6441 33.8807C32.3058 34.3544 32.5277 34.6056 30.6068 35.0519C28.6859 35.4981 23.3828 35.6425 26.4097 30.6709C27.6642 28.3675 27.7105 27.4633 27.5792 26.0537Z" fill="#F2545B"/>
<path d="M23.9787 5.70814C23.4239 5.33523 21.4474 4.4777 20.417 4.37546C20.9685 5.38325 21.3586 8.08839 18.5069 10.8467C19.5301 10.1391 22.2473 9.26581 23.767 8.3537C24.4396 7.95005 25.2851 6.73422 23.9787 5.70814Z" fill="#F2545B"/>
<path d="M34.637 23.548C35.0142 22.9995 35.8814 21.0451 35.9848 20.0263C34.9656 20.5716 32.2298 20.9573 29.4402 18.1376C30.1558 19.1494 31.039 21.8361 31.9615 23.3388C32.3697 24.0038 33.5993 24.8398 34.637 23.548Z" fill="#F2545B"/>
<path d="M16.5948 34.0869C17.1496 34.4598 19.1261 35.3173 20.1565 35.4195C19.605 34.4118 19.2149 31.7066 22.0666 28.9483C21.0434 29.6559 18.3262 30.5292 16.8065 31.4413C16.1339 31.845 15.2884 33.0608 16.5948 34.0869Z" fill="#F2545B"/>
<path d="M5.93648 16.247C5.55934 16.7955 4.6921 18.7499 4.58871 19.7687C5.60792 19.2234 8.34373 18.8377 11.1333 21.6574C10.4177 20.6457 9.53449 17.9589 8.61202 16.4562C8.2038 15.7912 6.97419 14.9552 5.93648 16.247Z" fill="#F2545B"/>
<path d="M19.4966 0.932958C19.3993 1.76737 21.1112 2.9915 22.3188 3.31903C27.6764 4.77216 27.0629 8.33107 24.9361 9.50389C21.1968 11.5659 13.8036 16.7885 20.1511 20.9922C16.9195 17.6327 21.1412 13.5539 25.9177 11.9304C26.8584 11.6107 28.9034 11.1739 32.0528 12.4562C32.7219 12.7286 35.1204 13.9525 34.3436 10.5582C32.7283 3.49936 25.6182 0.650798 22.5233 0.0432348C21.2963 -0.0376483 19.6193 -0.118539 19.4966 0.932958Z" fill="#F2545B"/>
<path d="M0.94354 21.0599C1.78742 21.1562 3.02543 19.4635 3.35669 18.2694C4.82629 12.9718 8.42554 13.5785 9.61166 15.6815C11.6971 19.3788 16.9789 26.6892 21.2303 20.4128C17.8327 23.6081 13.7076 19.4338 12.0657 14.7108C11.7423 13.7807 11.3006 11.7586 12.5974 8.64455C12.8729 7.98295 14.1108 5.61139 10.6779 6.37943C3.53905 7.97664 0.658178 15.007 0.0437247 18.0672C-0.0380758 19.2805 -0.119881 20.9386 0.94354 21.0599Z" fill="#F2545B"/>
<path d="M21.1351 39.067C21.2325 38.2326 19.5206 37.0085 18.313 36.681C12.9554 35.2278 13.5689 31.6689 15.6957 30.4961C19.435 28.4341 26.8282 23.2115 20.4807 19.0078C23.7122 22.3673 19.4906 26.4461 14.7141 28.0696C13.7734 28.3893 11.7283 28.8261 8.57899 27.5438C7.90989 27.2714 5.51143 26.0475 6.28818 29.4418C7.9035 36.5006 15.0136 39.3492 18.1085 39.9568C19.3355 40.0377 21.0124 40.1185 21.1351 39.067Z" fill="#F2545B"/>
<path d="M39.6737 18.9545C38.8298 18.8582 37.5918 20.5509 37.2605 21.745C35.7909 27.0426 32.1917 26.4359 31.0056 24.3329C28.9202 20.6356 23.6383 13.3252 19.3869 19.6016C22.7845 16.4063 26.9095 20.5806 28.5515 25.3035C28.8749 26.2337 29.3166 28.2558 28.0198 31.3698C27.7443 32.0314 26.5065 34.403 29.9393 33.635C37.0782 32.0378 39.959 25.0074 40.5735 21.9472C40.6553 20.7339 40.7371 19.0758 39.6737 18.9545Z" fill="#F2545B"/>
<path d="M13.2518 13.7099C13.4166 15.4791 14.4213 16.7026 17.3419 19.2504C15.1994 14.3304 14.5521 12.8219 16.9486 10.3292C19.3451 7.83659 19.1166 5.39862 19.1228 5.31797C19.1911 4.4312 18.7894 1.54003 15.3769 0.914954C11.9644 0.289879 7.7395 3.08127 6.47801 4.23491C5.33532 5.27991 6.34244 6.18188 7.18697 5.88293C8.52526 5.4092 8.30326 5.15797 10.2242 4.71171C12.1451 4.26545 17.4482 4.12108 14.4213 9.09267C13.1668 11.3961 13.1205 12.3004 13.2518 13.7099Z" fill="#F2545B"/>
<path d="M14.0289 27.0273C15.8182 26.8643 17.0556 25.8709 19.6323 22.9831C14.6565 25.1016 13.1309 25.7416 10.61 23.372C8.08908 21.0023 5.62347 21.2283 5.5419 21.2221C4.64508 21.1546 1.72113 21.5518 1.08897 24.926C0.456802 28.3003 3.27982 32.4778 4.44654 33.7251C5.5034 34.855 6.41559 33.8592 6.11325 33.0242C5.63414 31.7009 5.38008 31.9203 4.92876 30.021C4.47744 28.1216 4.33141 22.878 9.35939 25.8709C11.6889 27.1113 12.6035 27.1571 14.0289 27.0273Z" fill="#F2545B"/>
<path d="M27.5792 26.0537C27.4144 24.2845 26.4097 23.061 23.4891 20.5132C25.6316 25.4332 26.2789 26.9418 23.8824 29.4344C21.4859 31.927 21.7144 34.365 21.7082 34.4456C21.6399 35.3324 22.0416 38.2236 25.4541 38.8487C28.8666 39.4737 33.0915 36.6823 34.353 35.5287C35.4957 34.4837 34.4886 33.5817 33.6441 33.8807C32.3058 34.3544 32.5277 34.6056 30.6068 35.0519C28.6859 35.4981 23.3828 35.6425 26.4097 30.6709C27.6642 28.3675 27.7105 27.4633 27.5792 26.0537Z" fill="#F2545B"/>
<path d="M23.9787 5.70814C23.4239 5.33523 21.4474 4.4777 20.417 4.37546C20.9685 5.38325 21.3586 8.08839 18.5069 10.8467C19.5301 10.1391 22.2473 9.26581 23.767 8.3537C24.4396 7.95005 25.2851 6.73422 23.9787 5.70814Z" fill="#F2545B"/>
<path d="M34.637 23.548C35.0142 22.9995 35.8814 21.0451 35.9848 20.0263C34.9656 20.5716 32.2298 20.9573 29.4402 18.1376C30.1558 19.1494 31.039 21.8361 31.9615 23.3388C32.3697 24.0038 33.5993 24.8398 34.637 23.548Z" fill="#F2545B"/>
<path d="M16.5948 34.0869C17.1496 34.4598 19.1261 35.3173 20.1565 35.4195C19.605 34.4118 19.2149 31.7066 22.0666 28.9483C21.0434 29.6559 18.3262 30.5292 16.8065 31.4413C16.1339 31.845 15.2884 33.0608 16.5948 34.0869Z" fill="#F2545B"/>
<path d="M5.93648 16.247C5.55934 16.7955 4.6921 18.7499 4.58871 19.7687C5.60792 19.2234 8.34373 18.8377 11.1333 21.6574C10.4177 20.6457 9.53449 17.9589 8.61202 16.4562C8.2038 15.7912 6.97419 14.9552 5.93648 16.247Z" fill="#F2545B"/>
</svg>
